<svg viewBox="0 0 696 208" width="696" height="208" xmlns="http://www.w3.org/2000/svg" xmlns:xlink="http://www.w3.org/1999/xlink">
    <style>
        rect { shape-rendering: crispEdges; }
        text {
            dominant-baseline: text-before-edge;
            white-space: pre;
            font: 14px monospace;
            fill: #657b83;
        }
        .u { text-decoration: underline; }
    </style>
    <text x="0" y="0" style="fill: #859900">l</text>
    <text x="8" y="0" style="fill: #859900">t</text>
    <text x="16" y="0" style="fill: #859900">r</text>
    <text x="24" y="0" style="fill: #859900">s</text>
    <text x="40" y="0">c</text>
    <text x="48" y="0">h</text>
    <text x="56" y="0">e</text>
    <text x="64" y="0">c</text>
    <text x="72" y="0">k</text>
    <text x="88" y="0">-</text>
    <text x="96" y="0">-</text>
    <text x="104" y="0">t</text>
    <text x="112" y="0">e</text>
    <text x="120" y="0">x</text>
    <text x="128" y="0">t</text>
    <text x="144" y="0" style="fill: #b58900">&#34;</text>
    <text x="152" y="0" style="fill: #b58900">i</text>
    <text x="168" y="0" style="fill: #b58900">m</text>
    <text x="176" y="0" style="fill: #b58900">i</text>
    <text x="184" y="0" style="fill: #b58900">g</text>
    <text x="192" y="0" style="fill: #b58900">t</text>
    <text x="208" y="0" style="fill: #b58900">h</text>
    <text x="216" y="0" style="fill: #b58900">a</text>
    <text x="224" y="0" style="fill: #b58900">v</text>
    <text x="232" y="0" style="fill: #b58900">e</text>
    <text x="248" y="0" style="fill: #b58900">a</text>
    <text x="264" y="0" style="fill: #b58900">l</text>
    <text x="272" y="0" style="fill: #b58900">o</text>
    <text x="280" y="0" style="fill: #b58900">t</text>
    <text x="296" y="0" style="fill: #b58900">o</text>
    <text x="304" y="0" style="fill: #b58900">f</text>
    <text x="320" y="0" style="fill: #b58900">f</text>
    <text x="328" y="0" style="fill: #b58900">r</text>
    <text x="336" y="0" style="fill: #b58900">i</text>
    <text x="344" y="0" style="fill: #b58900">e</text>
    <text x="352" y="0" style="fill: #b58900">n</text>
    <text x="360" y="0" style="fill: #b58900">d</text>
    <text x="368" y="0" style="fill: #b58900">s</text>
    <text x="376" y="0" style="fill: #b58900">.</text>
    <text x="384" y="0" style="fill: #b58900">&#34;</text>
    <text x="0" y="16" style="fill: #ff9b66">e</text>
    <text x="8" y="16" style="fill: #ff9b66">r</text>
    <text x="16" y="16" style="fill: #ff9b66">r</text>
    <text x="24" y="16" style="fill: #ff9b66">o</text>
    <text x="32" y="16" style="fill: #ff9b66">r</text>
    <text x="40" y="16" style="fill: #ff9b66">[</text>
    <text x="48" y="16" style="fill: #ff9b66">U</text>
    <text x="56" y="16" style="fill: #ff9b66">P</text>
    <text x="64" y="16" style="fill: #ff9b66">P</text>
    <text x="72" y="16" style="fill: #ff9b66">E</text>
    <text x="80" y="16" style="fill: #ff9b66">R</text>
    <text x="88" y="16" style="fill: #ff9b66">C</text>
    <text x="96" y="16" style="fill: #ff9b66">A</text>
    <text x="104" y="16" style="fill: #ff9b66">S</text>
    <text x="112" y="16" style="fill: #ff9b66">E</text>
    <text x="120" y="16" style="fill: #ff9b66">_</text>
    <text x="128" y="16" style="fill: #ff9b66">S</text>
    <text x="136" y="16" style="fill: #ff9b66">E</text>
    <text x="144" y="16" style="fill: #ff9b66">N</text>
    <text x="152" y="16" style="fill: #ff9b66">T</text>
    <text x="160" y="16" style="fill: #ff9b66">E</text>
    <text x="168" y="16" style="fill: #ff9b66">N</text>
    <text x="176" y="16" style="fill: #ff9b66">C</text>
    <text x="184" y="16" style="fill: #ff9b66">E</text>
    <text x="192" y="16" style="fill: #ff9b66">_</text>
    <text x="200" y="16" style="fill: #ff9b66">S</text>
    <text x="208" y="16" style="fill: #ff9b66">T</text>
    <text x="216" y="16" style="fill: #ff9b66">A</text>
    <text x="224" y="16" style="fill: #ff9b66">R</text>
    <text x="232" y="16" style="fill: #ff9b66">T</text>
    <text x="240" y="16" style="fill: #ff9b66">]</text>
    <text x="248" y="16">:</text>
    <text x="264" y="16" style="fill: #b5cbd3">T</text>
    <text x="272" y="16" style="fill: #b5cbd3">h</text>
    <text x="280" y="16" style="fill: #b5cbd3">i</text>
    <text x="288" y="16" style="fill: #b5cbd3">s</text>
    <text x="304" y="16" style="fill: #b5cbd3">s</text>
    <text x="312" y="16" style="fill: #b5cbd3">e</text>
    <text x="320" y="16" style="fill: #b5cbd3">n</text>
    <text x="328" y="16" style="fill: #b5cbd3">t</text>
    <text x="336" y="16" style="fill: #b5cbd3">e</text>
    <text x="344" y="16" style="fill: #b5cbd3">n</text>
    <text x="352" y="16" style="fill: #b5cbd3">c</text>
    <text x="360" y="16" style="fill: #b5cbd3">e</text>
    <text x="376" y="16" style="fill: #b5cbd3">d</text>
    <text x="384" y="16" style="fill: #b5cbd3">o</text>
    <text x="392" y="16" style="fill: #b5cbd3">e</text>
    <text x="400" y="16" style="fill: #b5cbd3">s</text>
    <text x="416" y="16" style="fill: #b5cbd3">n</text>
    <text x="424" y="16" style="fill: #b5cbd3">o</text>
    <text x="432" y="16" style="fill: #b5cbd3">t</text>
    <text x="448" y="16" style="fill: #b5cbd3">s</text>
    <text x="456" y="16" style="fill: #b5cbd3">t</text>
    <text x="464" y="16" style="fill: #b5cbd3">a</text>
    <text x="472" y="16" style="fill: #b5cbd3">r</text>
    <text x="480" y="16" style="fill: #b5cbd3">t</text>
    <text x="496" y="16" style="fill: #b5cbd3">w</text>
    <text x="504" y="16" style="fill: #b5cbd3">i</text>
    <text x="512" y="16" style="fill: #b5cbd3">t</text>
    <text x="520" y="16" style="fill: #b5cbd3">h</text>
    <text x="536" y="16" style="fill: #b5cbd3">a</text>
    <text x="544" y="16" style="fill: #b5cbd3">n</text>
    <text x="560" y="16" style="fill: #b5cbd3">u</text>
    <text x="568" y="16" style="fill: #b5cbd3">p</text>
    <text x="576" y="16" style="fill: #b5cbd3">p</text>
    <text x="584" y="16" style="fill: #b5cbd3">e</text>
    <text x="592" y="16" style="fill: #b5cbd3">r</text>
    <text x="600" y="16" style="fill: #b5cbd3">c</text>
    <text x="608" y="16" style="fill: #b5cbd3">a</text>
    <text x="616" y="16" style="fill: #b5cbd3">s</text>
    <text x="624" y="16" style="fill: #b5cbd3">e</text>
    <text x="640" y="16" style="fill: #b5cbd3">l</text>
    <text x="648" y="16" style="fill: #b5cbd3">e</text>
    <text x="656" y="16" style="fill: #b5cbd3">t</text>
    <text x="664" y="16" style="fill: #b5cbd3">t</text>
    <text x="672" y="16" style="fill: #b5cbd3">e</text>
    <text x="680" y="16" style="fill: #b5cbd3">r</text>
    <text x="688" y="16" style="fill: #b5cbd3">.</text>
    <text x="16" y="32" style="fill: #d3e4e6">|</text>
    <text x="0" y="48" style="fill: #d3e4e6">1</text>
    <text x="16" y="48" style="fill: #d3e4e6">|</text>
    <text x="32" y="48">i</text>
    <text x="48" y="48">m</text>
    <text x="56" y="48">i</text>
    <text x="64" y="48">g</text>
    <text x="72" y="48">t</text>
    <text x="88" y="48">h</text>
    <text x="96" y="48">a</text>
    <text x="104" y="48">v</text>
    <text x="112" y="48">e</text>
    <text x="128" y="48">a</text>
    <text x="144" y="48">l</text>
    <text x="152" y="48">o</text>
    <text x="160" y="48">t</text>
    <text x="176" y="48">o</text>
    <text x="184" y="48">f</text>
    <text x="200" y="48">f</text>
    <text x="208" y="48">r</text>
    <text x="216" y="48">i</text>
    <text x="224" y="48">e</text>
    <text x="232" y="48">n</text>
    <text x="240" y="48">d</text>
    <text x="248" y="48">s</text>
    <text x="256" y="48">.</text>
    <text x="16" y="64" style="fill: #d3e4e6">|</text>
    <text x="32" y="64" style="fill: #ff9b66">^</text>
    <text x="48" y="64" style="fill: #ff9b66">C</text>
    <text x="56" y="64" style="fill: #ff9b66">h</text>
    <text x="64" y="64" style="fill: #ff9b66">e</text>
    <text x="72" y="64" style="fill: #ff9b66">c</text>
    <text x="80" y="64" style="fill: #ff9b66">k</text>
    <text x="88" y="64" style="fill: #ff9b66">s</text>
    <text x="104" y="64" style="fill: #ff9b66">t</text>
    <text x="112" y="64" style="fill: #ff9b66">h</text>
    <text x="120" y="64" style="fill: #ff9b66">a</text>
    <text x="128" y="64" style="fill: #ff9b66">t</text>
    <text x="144" y="64" style="fill: #ff9b66">a</text>
    <text x="160" y="64" style="fill: #ff9b66">s</text>
    <text x="168" y="64" style="fill: #ff9b66">e</text>
    <text x="176" y="64" style="fill: #ff9b66">n</text>
    <text x="184" y="64" style="fill: #ff9b66">t</text>
    <text x="192" y="64" style="fill: #ff9b66">e</text>
    <text x="200" y="64" style="fill: #ff9b66">n</text>
    <text x="208" y="64" style="fill: #ff9b66">c</text>
    <text x="216" y="64" style="fill: #ff9b66">e</text>
    <text x="232" y="64" style="fill: #ff9b66">s</text>
    <text x="240" y="64" style="fill: #ff9b66">t</text>
    <text x="248" y="64" style="fill: #ff9b66">a</text>
    <text x="256" y="64" style="fill: #ff9b66">r</text>
    <text x="264" y="64" style="fill: #ff9b66">t</text>
    <text x="272" y="64" style="fill: #ff9b66">s</text>
    <text x="288" y="64" style="fill: #ff9b66">w</text>
    <text x="296" y="64" style="fill: #ff9b66">i</text>
    <text x="304" y="64" style="fill: #ff9b66">t</text>
    <text x="312" y="64" style="fill: #ff9b66">h</text>
    <text x="328" y="64" style="fill: #ff9b66">a</text>
    <text x="336" y="64" style="fill: #ff9b66">n</text>
    <text x="352" y="64" style="fill: #ff9b66">u</text>
    <text x="360" y="64" style="fill: #ff9b66">p</text>
    <text x="368" y="64" style="fill: #ff9b66">p</text>
    <text x="376" y="64" style="fill: #ff9b66">e</text>
    <text x="384" y="64" style="fill: #ff9b66">r</text>
    <text x="392" y="64" style="fill: #ff9b66">c</text>
    <text x="400" y="64" style="fill: #ff9b66">a</text>
    <text x="408" y="64" style="fill: #ff9b66">s</text>
    <text x="416" y="64" style="fill: #ff9b66">e</text>
    <text x="432" y="64" style="fill: #ff9b66">l</text>
    <text x="440" y="64" style="fill: #ff9b66">e</text>
    <text x="448" y="64" style="fill: #ff9b66">t</text>
    <text x="456" y="64" style="fill: #ff9b66">t</text>
    <text x="464" y="64" style="fill: #ff9b66">e</text>
    <text x="472" y="64" style="fill: #ff9b66">r</text>
    <text x="16" y="80" style="fill: #d3e4e6">|</text>
    <text x="32" y="80" style="fill: #1622ff">-</text>
    <text x="48" y="80" style="fill: #1622ff">h</text>
    <text x="56" y="80" style="fill: #1622ff">e</text>
    <text x="64" y="80" style="fill: #1622ff">l</text>
    <text x="72" y="80" style="fill: #1622ff">p</text>
    <text x="80" y="80" style="fill: #1622ff">:</text>
    <text x="96" y="80" style="fill: #1622ff">I</text>
    <text x="16" y="96" style="fill: #d3e4e6">|</text>
    <text x="0" y="112" style="fill: #ff9b66">e</text>
    <text x="8" y="112" style="fill: #ff9b66">r</text>
    <text x="16" y="112" style="fill: #ff9b66">r</text>
    <text x="24" y="112" style="fill: #ff9b66">o</text>
    <text x="32" y="112" style="fill: #ff9b66">r</text>
    <text x="40" y="112" style="fill: #ff9b66">[</text>
    <text x="48" y="112" style="fill: #ff9b66">M</text>
    <text x="56" y="112" style="fill: #ff9b66">O</text>
    <text x="64" y="112" style="fill: #ff9b66">R</text>
    <text x="72" y="112" style="fill: #ff9b66">F</text>
    <text x="80" y="112" style="fill: #ff9b66">O</text>
    <text x="88" y="112" style="fill: #ff9b66">L</text>
    <text x="96" y="112" style="fill: #ff9b66">O</text>
    <text x="104" y="112" style="fill: #ff9b66">G</text>
    <text x="112" y="112" style="fill: #ff9b66">I</text>
    <text x="120" y="112" style="fill: #ff9b66">K</text>
    <text x="128" y="112" style="fill: #ff9b66">_</text>
    <text x="136" y="112" style="fill: #ff9b66">R</text>
    <text x="144" y="112" style="fill: #ff9b66">U</text>
    <text x="152" y="112" style="fill: #ff9b66">L</text>
    <text x="160" y="112" style="fill: #ff9b66">E</text>
    <text x="168" y="112" style="fill: #ff9b66">_</text>
    <text x="176" y="112" style="fill: #ff9b66">E</text>
    <text x="184" y="112" style="fill: #ff9b66">N</text>
    <text x="192" y="112" style="fill: #ff9b66">_</text>
    <text x="200" y="112" style="fill: #ff9b66">U</text>
    <text x="208" y="112" style="fill: #ff9b66">S</text>
    <text x="216" y="112" style="fill: #ff9b66">]</text>
    <text x="224" y="112">:</text>
    <text x="240" y="112" style="fill: #b5cbd3">P</text>
    <text x="248" y="112" style="fill: #b5cbd3">o</text>
    <text x="256" y="112" style="fill: #b5cbd3">s</text>
    <text x="264" y="112" style="fill: #b5cbd3">s</text>
    <text x="272" y="112" style="fill: #b5cbd3">i</text>
    <text x="280" y="112" style="fill: #b5cbd3">b</text>
    <text x="288" y="112" style="fill: #b5cbd3">l</text>
    <text x="296" y="112" style="fill: #b5cbd3">e</text>
    <text x="312" y="112" style="fill: #b5cbd3">s</text>
    <text x="320" y="112" style="fill: #b5cbd3">p</text>
    <text x="328" y="112" style="fill: #b5cbd3">e</text>
    <text x="336" y="112" style="fill: #b5cbd3">l</text>
    <text x="344" y="112" style="fill: #b5cbd3">l</text>
    <text x="352" y="112" style="fill: #b5cbd3">i</text>
    <text x="360" y="112" style="fill: #b5cbd3">n</text>
    <text x="368" y="112" style="fill: #b5cbd3">g</text>
    <text x="384" y="112" style="fill: #b5cbd3">m</text>
    <text x="392" y="112" style="fill: #b5cbd3">i</text>
    <text x="400" y="112" style="fill: #b5cbd3">s</text>
    <text x="408" y="112" style="fill: #b5cbd3">t</text>
    <text x="416" y="112" style="fill: #b5cbd3">a</text>
    <text x="424" y="112" style="fill: #b5cbd3">k</text>
    <text x="432" y="112" style="fill: #b5cbd3">e</text>
    <text x="448" y="112" style="fill: #b5cbd3">f</text>
    <text x="456" y="112" style="fill: #b5cbd3">o</text>
    <text x="464" y="112" style="fill: #b5cbd3">u</text>
    <text x="472" y="112" style="fill: #b5cbd3">n</text>
    <text x="480" y="112" style="fill: #b5cbd3">d</text>
    <text x="488" y="112" style="fill: #b5cbd3">.</text>
    <text x="16" y="128" style="fill: #d3e4e6">|</text>
    <text x="0" y="144" style="fill: #d3e4e6">1</text>
    <text x="16" y="144" style="fill: #d3e4e6">|</text>
    <text x="32" y="144">i</text>
    <text x="48" y="144">m</text>
    <text x="56" y="144">i</text>
    <text x="64" y="144">g</text>
    <text x="72" y="144">t</text>
    <text x="88" y="144">h</text>
    <text x="96" y="144">a</text>
    <text x="104" y="144">v</text>
    <text x="112" y="144">e</text>
    <text x="128" y="144">a</text>
    <text x="144" y="144">l</text>
    <text x="152" y="144">o</text>
    <text x="160" y="144">t</text>
    <text x="176" y="144">o</text>
    <text x="184" y="144">f</text>
    <text x="200" y="144">f</text>
    <text x="208" y="144">r</text>
    <text x="216" y="144">i</text>
    <text x="224" y="144">e</text>
    <text x="232" y="144">n</text>
    <text x="240" y="144">d</text>
    <text x="248" y="144">s</text>
    <text x="256" y="144">.</text>
    <text x="16" y="160" style="fill: #d3e4e6">|</text>
    <text x="48" y="160" style="fill: #ff9b66">^</text>
    <text x="56" y="160" style="fill: #ff9b66">^</text>
    <text x="64" y="160" style="fill: #ff9b66">^</text>
    <text x="72" y="160" style="fill: #ff9b66">^</text>
    <text x="88" y="160" style="fill: #ff9b66">P</text>
    <text x="96" y="160" style="fill: #ff9b66">o</text>
    <text x="104" y="160" style="fill: #ff9b66">s</text>
    <text x="112" y="160" style="fill: #ff9b66">s</text>
    <text x="120" y="160" style="fill: #ff9b66">i</text>
    <text x="128" y="160" style="fill: #ff9b66">b</text>
    <text x="136" y="160" style="fill: #ff9b66">l</text>
    <text x="144" y="160" style="fill: #ff9b66">e</text>
    <text x="160" y="160" style="fill: #ff9b66">s</text>
    <text x="168" y="160" style="fill: #ff9b66">p</text>
    <text x="176" y="160" style="fill: #ff9b66">e</text>
    <text x="184" y="160" style="fill: #ff9b66">l</text>
    <text x="192" y="160" style="fill: #ff9b66">l</text>
    <text x="200" y="160" style="fill: #ff9b66">i</text>
    <text x="208" y="160" style="fill: #ff9b66">n</text>
    <text x="216" y="160" style="fill: #ff9b66">g</text>
    <text x="232" y="160" style="fill: #ff9b66">m</text>
    <text x="240" y="160" style="fill: #ff9b66">i</text>
    <text x="248" y="160" style="fill: #ff9b66">s</text>
    <text x="256" y="160" style="fill: #ff9b66">t</text>
    <text x="264" y="160" style="fill: #ff9b66">a</text>
    <text x="272" y="160" style="fill: #ff9b66">k</text>
    <text x="280" y="160" style="fill: #ff9b66">e</text>
    <text x="16" y="176" style="fill: #d3e4e6">|</text>
    <text x="48" y="176" style="fill: #1622ff">-</text>
    <text x="56" y="176" style="fill: #1622ff">-</text>
    <text x="64" y="176" style="fill: #1622ff">-</text>
    <text x="72" y="176" style="fill: #1622ff">-</text>
    <text x="88" y="176" style="fill: #1622ff">h</text>
    <text x="96" y="176" style="fill: #1622ff">e</text>
    <text x="104" y="176" style="fill: #1622ff">l</text>
    <text x="112" y="176" style="fill: #1622ff">p</text>
    <text x="120" y="176" style="fill: #1622ff">:</text>
    <text x="136" y="176" style="fill: #1622ff">m</text>
    <text x="144" y="176" style="fill: #1622ff">i</text>
    <text x="152" y="176" style="fill: #1622ff">g</text>
    <text x="160" y="176" style="fill: #1622ff">h</text>
    <text x="168" y="176" style="fill: #1622ff">t</text>
    <text x="176" y="176" style="fill: #1622ff">,</text>
    <text x="192" y="176" style="fill: #1622ff">m</text>
    <text x="200" y="176" style="fill: #1622ff">i</text>
    <text x="208" y="176" style="fill: #1622ff">n</text>
    <text x="216" y="176" style="fill: #1622ff">t</text>
    <text x="224" y="176" style="fill: #1622ff">,</text>
    <text x="240" y="176" style="fill: #1622ff">m</text>
    <text x="248" y="176" style="fill: #1622ff">i</text>
    <text x="256" y="176" style="fill: #1622ff">s</text>
    <text x="264" y="176" style="fill: #1622ff">t</text>
    <text x="272" y="176" style="fill: #1622ff">,</text>
    <text x="288" y="176" style="fill: #1622ff">m</text>
    <text x="296" y="176" style="fill: #1622ff">i</text>
    <text x="304" y="176" style="fill: #1622ff">t</text>
    <text x="312" y="176" style="fill: #1622ff">t</text>
    <text x="320" y="176" style="fill: #1622ff">,</text>
    <text x="336" y="176" style="fill: #1622ff">m</text>
    <text x="344" y="176" style="fill: #1622ff">i</text>
    <text x="352" y="176" style="fill: #1622ff">l</text>
    <text x="360" y="176" style="fill: #1622ff">t</text>
    <text x="368" y="176" style="fill: #1622ff">,</text>
    <text x="384" y="176" style="fill: #1622ff">M</text>
    <text x="392" y="176" style="fill: #1622ff">I</text>
    <text x="400" y="176" style="fill: #1622ff">T</text>
    <text x="408" y="176" style="fill: #1622ff">,</text>
    <text x="424" y="176" style="fill: #1622ff">M</text>
    <text x="432" y="176" style="fill: #1622ff">I</text>
    <text x="440" y="176" style="fill: #1622ff">G</text>
    <text x="448" y="176" style="fill: #1622ff">,</text>
    <text x="464" y="176" style="fill: #1622ff">M</text>
    <text x="472" y="176" style="fill: #1622ff">i</text>
    <text x="480" y="176" style="fill: #1622ff">G</text>
    <text x="488" y="176" style="fill: #1622ff">,</text>
    <text x="504" y="176" style="fill: #1622ff">M</text>
    <text x="512" y="176" style="fill: #1622ff">i</text>
    <text x="520" y="176" style="fill: #1622ff">n</text>
    <text x="528" y="176" style="fill: #1622ff">t</text>
    <text x="16" y="192" style="fill: #d3e4e6">|</text>
</svg>
