<svg viewBox="0 0 696 208" width="696" height="208" xmlns="http://www.w3.org/2000/svg" xmlns:xlink="http://www.w3.org/1999/xlink">
    <style>
        rect { shape-rendering: crispEdges; }
        text {
            dominant-baseline: text-before-edge;
            white-space: pre;
            font: 14px monospace;
            fill: #bbbbbb;
        }
        .u { text-decoration: underline; }
    </style>
    <rect width="100%" height="100%" x="0" y="0" style="fill: #000000"/>
    <text x="0" y="0" style="fill: #00bb00">l</text>
    <text x="8" y="0" style="fill: #00bb00">t</text>
    <text x="16" y="0" style="fill: #00bb00">r</text>
    <text x="24" y="0" style="fill: #00bb00">s</text>
    <text x="40" y="0">c</text>
    <text x="48" y="0">h</text>
    <text x="56" y="0">e</text>
    <text x="64" y="0">c</text>
    <text x="72" y="0">k</text>
    <text x="88" y="0">-</text>
    <text x="96" y="0">-</text>
    <text x="104" y="0">t</text>
    <text x="112" y="0">e</text>
    <text x="120" y="0">x</text>
    <text x="128" y="0">t</text>
    <text x="144" y="0" style="fill: #bbbb00">&#34;</text>
    <text x="152" y="0" style="fill: #bbbb00">i</text>
    <text x="168" y="0" style="fill: #bbbb00">m</text>
    <text x="176" y="0" style="fill: #bbbb00">i</text>
    <text x="184" y="0" style="fill: #bbbb00">g</text>
    <text x="192" y="0" style="fill: #bbbb00">h</text>
    <text x="200" y="0" style="fill: #bbbb00">t</text>
    <text x="216" y="0" style="fill: #bbbb00">h</text>
    <text x="224" y="0" style="fill: #bbbb00">a</text>
    <text x="232" y="0" style="fill: #bbbb00">v</text>
    <text x="240" y="0" style="fill: #bbbb00">e</text>
    <text x="256" y="0" style="fill: #bbbb00">a</text>
    <text x="272" y="0" style="fill: #bbbb00">l</text>
    <text x="280" y="0" style="fill: #bbbb00">o</text>
    <text x="288" y="0" style="fill: #bbbb00">t</text>
    <text x="304" y="0" style="fill: #bbbb00">o</text>
    <text x="312" y="0" style="fill: #bbbb00">f</text>
    <text x="328" y="0" style="fill: #bbbb00">f</text>
    <text x="336" y="0" style="fill: #bbbb00">r</text>
    <text x="344" y="0" style="fill: #bbbb00">i</text>
    <text x="352" y="0" style="fill: #bbbb00">e</text>
    <text x="360" y="0" style="fill: #bbbb00">n</text>
    <text x="368" y="0" style="fill: #bbbb00">d</text>
    <text x="376" y="0" style="fill: #bbbb00">s</text>
    <text x="384" y="0" style="fill: #bbbb00">.</text>
    <text x="392" y="0" style="fill: #bbbb00">&#34;</text>
    <text x="0" y="16" style="fill: #ffa5a5">e</text>
    <text x="8" y="16" style="fill: #ffa5a5">r</text>
    <text x="16" y="16" style="fill: #ffa5a5">r</text>
    <text x="24" y="16" style="fill: #ffa5a5">o</text>
    <text x="32" y="16" style="fill: #ffa5a5">r</text>
    <text x="40" y="16" style="fill: #ffa5a5">[</text>
    <text x="48" y="16" style="fill: #ffa5a5">U</text>
    <text x="56" y="16" style="fill: #ffa5a5">P</text>
    <text x="64" y="16" style="fill: #ffa5a5">P</text>
    <text x="72" y="16" style="fill: #ffa5a5">E</text>
    <text x="80" y="16" style="fill: #ffa5a5">R</text>
    <text x="88" y="16" style="fill: #ffa5a5">C</text>
    <text x="96" y="16" style="fill: #ffa5a5">A</text>
    <text x="104" y="16" style="fill: #ffa5a5">S</text>
    <text x="112" y="16" style="fill: #ffa5a5">E</text>
    <text x="120" y="16" style="fill: #ffa5a5">_</text>
    <text x="128" y="16" style="fill: #ffa5a5">S</text>
    <text x="136" y="16" style="fill: #ffa5a5">E</text>
    <text x="144" y="16" style="fill: #ffa5a5">N</text>
    <text x="152" y="16" style="fill: #ffa5a5">T</text>
    <text x="160" y="16" style="fill: #ffa5a5">E</text>
    <text x="168" y="16" style="fill: #ffa5a5">N</text>
    <text x="176" y="16" style="fill: #ffa5a5">C</text>
    <text x="184" y="16" style="fill: #ffa5a5">E</text>
    <text x="192" y="16" style="fill: #ffa5a5">_</text>
    <text x="200" y="16" style="fill: #ffa5a5">S</text>
    <text x="208" y="16" style="fill: #ffa5a5">T</text>
    <text x="216" y="16" style="fill: #ffa5a5">A</text>
    <text x="224" y="16" style="fill: #ffa5a5">R</text>
    <text x="232" y="16" style="fill: #ffa5a5">T</text>
    <text x="240" y="16" style="fill: #ffa5a5">]</text>
    <text x="248" y="16">:</text>
    <text x="264" y="16" style="fill: #ffffff">T</text>
    <text x="272" y="16" style="fill: #ffffff">h</text>
    <text x="280" y="16" style="fill: #ffffff">i</text>
    <text x="288" y="16" style="fill: #ffffff">s</text>
    <text x="304" y="16" style="fill: #ffffff">s</text>
    <text x="312" y="16" style="fill: #ffffff">e</text>
    <text x="320" y="16" style="fill: #ffffff">n</text>
    <text x="328" y="16" style="fill: #ffffff">t</text>
    <text x="336" y="16" style="fill: #ffffff">e</text>
    <text x="344" y="16" style="fill: #ffffff">n</text>
    <text x="352" y="16" style="fill: #ffffff">c</text>
    <text x="360" y="16" style="fill: #ffffff">e</text>
    <text x="376" y="16" style="fill: #ffffff">d</text>
    <text x="384" y="16" style="fill: #ffffff">o</text>
    <text x="392" y="16" style="fill: #ffffff">e</text>
    <text x="400" y="16" style="fill: #ffffff">s</text>
    <text x="416" y="16" style="fill: #ffffff">n</text>
    <text x="424" y="16" style="fill: #ffffff">o</text>
    <text x="432" y="16" style="fill: #ffffff">t</text>
    <text x="448" y="16" style="fill: #ffffff">s</text>
    <text x="456" y="16" style="fill: #ffffff">t</text>
    <text x="464" y="16" style="fill: #ffffff">a</text>
    <text x="472" y="16" style="fill: #ffffff">r</text>
    <text x="480" y="16" style="fill: #ffffff">t</text>
    <text x="496" y="16" style="fill: #ffffff">w</text>
    <text x="504" y="16" style="fill: #ffffff">i</text>
    <text x="512" y="16" style="fill: #ffffff">t</text>
    <text x="520" y="16" style="fill: #ffffff">h</text>
    <text x="536" y="16" style="fill: #ffffff">a</text>
    <text x="544" y="16" style="fill: #ffffff">n</text>
    <text x="560" y="16" style="fill: #ffffff">u</text>
    <text x="568" y="16" style="fill: #ffffff">p</text>
    <text x="576" y="16" style="fill: #ffffff">p</text>
    <text x="584" y="16" style="fill: #ffffff">e</text>
    <text x="592" y="16" style="fill: #ffffff">r</text>
    <text x="600" y="16" style="fill: #ffffff">c</text>
    <text x="608" y="16" style="fill: #ffffff">a</text>
    <text x="616" y="16" style="fill: #ffffff">s</text>
    <text x="624" y="16" style="fill: #ffffff">e</text>
    <text x="640" y="16" style="fill: #ffffff">l</text>
    <text x="648" y="16" style="fill: #ffffff">e</text>
    <text x="656" y="16" style="fill: #ffffff">t</text>
    <text x="664" y="16" style="fill: #ffffff">t</text>
    <text x="672" y="16" style="fill: #ffffff">e</text>
    <text x="680" y="16" style="fill: #ffffff">r</text>
    <text x="688" y="16" style="fill: #ffffff">.</text>
    <text x="16" y="32" style="fill: #a5a5ff">|</text>
    <text x="0" y="48" style="fill: #a5a5ff">1</text>
    <text x="16" y="48" style="fill: #a5a5ff">|</text>
    <text x="32" y="48">i</text>
    <text x="48" y="48">m</text>
    <text x="56" y="48">i</text>
    <text x="64" y="48">g</text>
    <text x="72" y="48">t</text>
    <text x="88" y="48">h</text>
    <text x="96" y="48">a</text>
    <text x="104" y="48">v</text>
    <text x="112" y="48">e</text>
    <text x="128" y="48">a</text>
    <text x="144" y="48">l</text>
    <text x="152" y="48">o</text>
    <text x="160" y="48">t</text>
    <text x="176" y="48">o</text>
    <text x="184" y="48">f</text>
    <text x="200" y="48">f</text>
    <text x="208" y="48">r</text>
    <text x="216" y="48">i</text>
    <text x="224" y="48">e</text>
    <text x="232" y="48">n</text>
    <text x="240" y="48">d</text>
    <text x="248" y="48">s</text>
    <text x="256" y="48">.</text>
    <text x="16" y="64" style="fill: #a5a5ff">|</text>
    <text x="32" y="64" style="fill: #ffa5a5">^</text>
    <text x="48" y="64" style="fill: #ffa5a5">C</text>
    <text x="56" y="64" style="fill: #ffa5a5">h</text>
    <text x="64" y="64" style="fill: #ffa5a5">e</text>
    <text x="72" y="64" style="fill: #ffa5a5">c</text>
    <text x="80" y="64" style="fill: #ffa5a5">k</text>
    <text x="88" y="64" style="fill: #ffa5a5">s</text>
    <text x="104" y="64" style="fill: #ffa5a5">t</text>
    <text x="112" y="64" style="fill: #ffa5a5">h</text>
    <text x="120" y="64" style="fill: #ffa5a5">a</text>
    <text x="128" y="64" style="fill: #ffa5a5">t</text>
    <text x="144" y="64" style="fill: #ffa5a5">a</text>
    <text x="160" y="64" style="fill: #ffa5a5">s</text>
    <text x="168" y="64" style="fill: #ffa5a5">e</text>
    <text x="176" y="64" style="fill: #ffa5a5">n</text>
    <text x="184" y="64" style="fill: #ffa5a5">t</text>
    <text x="192" y="64" style="fill: #ffa5a5">e</text>
    <text x="200" y="64" style="fill: #ffa5a5">n</text>
    <text x="208" y="64" style="fill: #ffa5a5">c</text>
    <text x="216" y="64" style="fill: #ffa5a5">e</text>
    <text x="232" y="64" style="fill: #ffa5a5">s</text>
    <text x="240" y="64" style="fill: #ffa5a5">t</text>
    <text x="248" y="64" style="fill: #ffa5a5">a</text>
    <text x="256" y="64" style="fill: #ffa5a5">r</text>
    <text x="264" y="64" style="fill: #ffa5a5">t</text>
    <text x="272" y="64" style="fill: #ffa5a5">s</text>
    <text x="288" y="64" style="fill: #ffa5a5">w</text>
    <text x="296" y="64" style="fill: #ffa5a5">i</text>
    <text x="304" y="64" style="fill: #ffa5a5">t</text>
    <text x="312" y="64" style="fill: #ffa5a5">h</text>
    <text x="328" y="64" style="fill: #ffa5a5">a</text>
    <text x="336" y="64" style="fill: #ffa5a5">n</text>
    <text x="352" y="64" style="fill: #ffa5a5">u</text>
    <text x="360" y="64" style="fill: #ffa5a5">p</text>
    <text x="368" y="64" style="fill: #ffa5a5">p</text>
    <text x="376" y="64" style="fill: #ffa5a5">e</text>
    <text x="384" y="64" style="fill: #ffa5a5">r</text>
    <text x="392" y="64" style="fill: #ffa5a5">c</text>
    <text x="400" y="64" style="fill: #ffa5a5">a</text>
    <text x="408" y="64" style="fill: #ffa5a5">s</text>
    <text x="416" y="64" style="fill: #ffa5a5">e</text>
    <text x="432" y="64" style="fill: #ffa5a5">l</text>
    <text x="440" y="64" style="fill: #ffa5a5">e</text>
    <text x="448" y="64" style="fill: #ffa5a5">t</text>
    <text x="456" y="64" style="fill: #ffa5a5">t</text>
    <text x="464" y="64" style="fill: #ffa5a5">e</text>
    <text x="472" y="64" style="fill: #ffa5a5">r</text>
    <text x="16" y="80" style="fill: #a5a5ff">|</text>
    <text x="32" y="80" style="fill: #a5ffff">-</text>
    <text x="48" y="80" style="fill: #a5ffff">h</text>
    <text x="56" y="80" style="fill: #a5ffff">e</text>
    <text x="64" y="80" style="fill: #a5ffff">l</text>
    <text x="72" y="80" style="fill: #a5ffff">p</text>
    <text x="80" y="80" style="fill: #a5ffff">:</text>
    <text x="96" y="80" style="fill: #a5ffff">I</text>
    <text x="16" y="96" style="fill: #a5a5ff">|</text>
    <text x="0" y="112" style="fill: #ffa5a5">e</text>
    <text x="8" y="112" style="fill: #ffa5a5">r</text>
    <text x="16" y="112" style="fill: #ffa5a5">r</text>
    <text x="24" y="112" style="fill: #ffa5a5">o</text>
    <text x="32" y="112" style="fill: #ffa5a5">r</text>
    <text x="40" y="112" style="fill: #ffa5a5">[</text>
    <text x="48" y="112" style="fill: #ffa5a5">M</text>
    <text x="56" y="112" style="fill: #ffa5a5">O</text>
    <text x="64" y="112" style="fill: #ffa5a5">R</text>
    <text x="72" y="112" style="fill: #ffa5a5">F</text>
    <text x="80" y="112" style="fill: #ffa5a5">O</text>
    <text x="88" y="112" style="fill: #ffa5a5">L</text>
    <text x="96" y="112" style="fill: #ffa5a5">O</text>
    <text x="104" y="112" style="fill: #ffa5a5">G</text>
    <text x="112" y="112" style="fill: #ffa5a5">I</text>
    <text x="120" y="112" style="fill: #ffa5a5">K</text>
    <text x="128" y="112" style="fill: #ffa5a5">_</text>
    <text x="136" y="112" style="fill: #ffa5a5">R</text>
    <text x="144" y="112" style="fill: #ffa5a5">U</text>
    <text x="152" y="112" style="fill: #ffa5a5">L</text>
    <text x="160" y="112" style="fill: #ffa5a5">E</text>
    <text x="168" y="112" style="fill: #ffa5a5">_</text>
    <text x="176" y="112" style="fill: #ffa5a5">E</text>
    <text x="184" y="112" style="fill: #ffa5a5">N</text>
    <text x="192" y="112" style="fill: #ffa5a5">_</text>
    <text x="200" y="112" style="fill: #ffa5a5">U</text>
    <text x="208" y="112" style="fill: #ffa5a5">S</text>
    <text x="216" y="112" style="fill: #ffa5a5">]</text>
    <text x="224" y="112">:</text>
    <text x="240" y="112" style="fill: #ffffff">P</text>
    <text x="248" y="112" style="fill: #ffffff">o</text>
    <text x="256" y="112" style="fill: #ffffff">s</text>
    <text x="264" y="112" style="fill: #ffffff">s</text>
    <text x="272" y="112" style="fill: #ffffff">i</text>
    <text x="280" y="112" style="fill: #ffffff">b</text>
    <text x="288" y="112" style="fill: #ffffff">l</text>
    <text x="296" y="112" style="fill: #ffffff">e</text>
    <text x="312" y="112" style="fill: #ffffff">s</text>
    <text x="320" y="112" style="fill: #ffffff">p</text>
    <text x="328" y="112" style="fill: #ffffff">e</text>
    <text x="336" y="112" style="fill: #ffffff">l</text>
    <text x="344" y="112" style="fill: #ffffff">l</text>
    <text x="352" y="112" style="fill: #ffffff">i</text>
    <text x="360" y="112" style="fill: #ffffff">n</text>
    <text x="368" y="112" style="fill: #ffffff">g</text>
    <text x="384" y="112" style="fill: #ffffff">m</text>
    <text x="392" y="112" style="fill: #ffffff">i</text>
    <text x="400" y="112" style="fill: #ffffff">s</text>
    <text x="408" y="112" style="fill: #ffffff">t</text>
    <text x="416" y="112" style="fill: #ffffff">a</text>
    <text x="424" y="112" style="fill: #ffffff">k</text>
    <text x="432" y="112" style="fill: #ffffff">e</text>
    <text x="448" y="112" style="fill: #ffffff">f</text>
    <text x="456" y="112" style="fill: #ffffff">o</text>
    <text x="464" y="112" style="fill: #ffffff">u</text>
    <text x="472" y="112" style="fill: #ffffff">n</text>
    <text x="480" y="112" style="fill: #ffffff">d</text>
    <text x="488" y="112" style="fill: #ffffff">.</text>
    <text x="16" y="128" style="fill: #a5a5ff">|</text>
    <text x="0" y="144" style="fill: #a5a5ff">1</text>
    <text x="16" y="144" style="fill: #a5a5ff">|</text>
    <text x="32" y="144">i</text>
    <text x="48" y="144">m</text>
    <text x="56" y="144">i</text>
    <text x="64" y="144">g</text>
    <text x="72" y="144">t</text>
    <text x="88" y="144">h</text>
    <text x="96" y="144">a</text>
    <text x="104" y="144">v</text>
    <text x="112" y="144">e</text>
    <text x="128" y="144">a</text>
    <text x="144" y="144">l</text>
    <text x="152" y="144">o</text>
    <text x="160" y="144">t</text>
    <text x="176" y="144">o</text>
    <text x="184" y="144">f</text>
    <text x="200" y="144">f</text>
    <text x="208" y="144">r</text>
    <text x="216" y="144">i</text>
    <text x="224" y="144">e</text>
    <text x="232" y="144">n</text>
    <text x="240" y="144">d</text>
    <text x="248" y="144">s</text>
    <text x="256" y="144">.</text>
    <text x="16" y="160" style="fill: #a5a5ff">|</text>
    <text x="48" y="160" style="fill: #ffa5a5">^</text>
    <text x="56" y="160" style="fill: #ffa5a5">^</text>
    <text x="64" y="160" style="fill: #ffa5a5">^</text>
    <text x="72" y="160" style="fill: #ffa5a5">^</text>
    <text x="88" y="160" style="fill: #ffa5a5">P</text>
    <text x="96" y="160" style="fill: #ffa5a5">o</text>
    <text x="104" y="160" style="fill: #ffa5a5">s</text>
    <text x="112" y="160" style="fill: #ffa5a5">s</text>
    <text x="120" y="160" style="fill: #ffa5a5">i</text>
    <text x="128" y="160" style="fill: #ffa5a5">b</text>
    <text x="136" y="160" style="fill: #ffa5a5">l</text>
    <text x="144" y="160" style="fill: #ffa5a5">e</text>
    <text x="160" y="160" style="fill: #ffa5a5">s</text>
    <text x="168" y="160" style="fill: #ffa5a5">p</text>
    <text x="176" y="160" style="fill: #ffa5a5">e</text>
    <text x="184" y="160" style="fill: #ffa5a5">l</text>
    <text x="192" y="160" style="fill: #ffa5a5">l</text>
    <text x="200" y="160" style="fill: #ffa5a5">i</text>
    <text x="208" y="160" style="fill: #ffa5a5">n</text>
    <text x="216" y="160" style="fill: #ffa5a5">g</text>
    <text x="232" y="160" style="fill: #ffa5a5">m</text>
    <text x="240" y="160" style="fill: #ffa5a5">i</text>
    <text x="248" y="160" style="fill: #ffa5a5">s</text>
    <text x="256" y="160" style="fill: #ffa5a5">t</text>
    <text x="264" y="160" style="fill: #ffa5a5">a</text>
    <text x="272" y="160" style="fill: #ffa5a5">k</text>
    <text x="280" y="160" style="fill: #ffa5a5">e</text>
    <text x="16" y="176" style="fill: #a5a5ff">|</text>
    <text x="48" y="176" style="fill: #a5ffff">-</text>
    <text x="56" y="176" style="fill: #a5ffff">-</text>
    <text x="64" y="176" style="fill: #a5ffff">-</text>
    <text x="72" y="176" style="fill: #a5ffff">-</text>
    <text x="88" y="176" style="fill: #a5ffff">h</text>
    <text x="96" y="176" style="fill: #a5ffff">e</text>
    <text x="104" y="176" style="fill: #a5ffff">l</text>
    <text x="112" y="176" style="fill: #a5ffff">p</text>
    <text x="120" y="176" style="fill: #a5ffff">:</text>
    <text x="136" y="176" style="fill: #a5ffff">m</text>
    <text x="144" y="176" style="fill: #a5ffff">i</text>
    <text x="152" y="176" style="fill: #a5ffff">g</text>
    <text x="160" y="176" style="fill: #a5ffff">h</text>
    <text x="168" y="176" style="fill: #a5ffff">t</text>
    <text x="176" y="176" style="fill: #a5ffff">,</text>
    <text x="192" y="176" style="fill: #a5ffff">m</text>
    <text x="200" y="176" style="fill: #a5ffff">i</text>
    <text x="208" y="176" style="fill: #a5ffff">n</text>
    <text x="216" y="176" style="fill: #a5ffff">t</text>
    <text x="224" y="176" style="fill: #a5ffff">,</text>
    <text x="240" y="176" style="fill: #a5ffff">m</text>
    <text x="248" y="176" style="fill: #a5ffff">i</text>
    <text x="256" y="176" style="fill: #a5ffff">s</text>
    <text x="264" y="176" style="fill: #a5ffff">t</text>
    <text x="272" y="176" style="fill: #a5ffff">,</text>
    <text x="288" y="176" style="fill: #a5ffff">m</text>
    <text x="296" y="176" style="fill: #a5ffff">i</text>
    <text x="304" y="176" style="fill: #a5ffff">t</text>
    <text x="312" y="176" style="fill: #a5ffff">t</text>
    <text x="320" y="176" style="fill: #a5ffff">,</text>
    <text x="336" y="176" style="fill: #a5ffff">m</text>
    <text x="344" y="176" style="fill: #a5ffff">i</text>
    <text x="352" y="176" style="fill: #a5ffff">l</text>
    <text x="360" y="176" style="fill: #a5ffff">t</text>
    <text x="368" y="176" style="fill: #a5ffff">,</text>
    <text x="384" y="176" style="fill: #a5ffff">M</text>
    <text x="392" y="176" style="fill: #a5ffff">I</text>
    <text x="400" y="176" style="fill: #a5ffff">T</text>
    <text x="408" y="176" style="fill: #a5ffff">,</text>
    <text x="424" y="176" style="fill: #a5ffff">M</text>
    <text x="432" y="176" style="fill: #a5ffff">I</text>
    <text x="440" y="176" style="fill: #a5ffff">G</text>
    <text x="448" y="176" style="fill: #a5ffff">,</text>
    <text x="464" y="176" style="fill: #a5ffff">M</text>
    <text x="472" y="176" style="fill: #a5ffff">i</text>
    <text x="480" y="176" style="fill: #a5ffff">G</text>
    <text x="488" y="176" style="fill: #a5ffff">,</text>
    <text x="504" y="176" style="fill: #a5ffff">M</text>
    <text x="512" y="176" style="fill: #a5ffff">i</text>
    <text x="520" y="176" style="fill: #a5ffff">n</text>
    <text x="528" y="176" style="fill: #a5ffff">t</text>
    <text x="16" y="192" style="fill: #a5a5ff">|</text>
</svg>
